<svg xmlns="http://www.w3.org/2000/svg" width="512" height="512" viewBox="0 0 512 512">
  <defs>
    <filter id="shadow" x="-20%" y="-20%" width="140%" height="140%">
      <feGaussianBlur in="SourceAlpha" stdDeviation="5"/>
      <feOffset dx="0" dy="5" result="offsetblur"/>
      <feComponentTransfer>
        <feFuncA type="linear" slope="0.2"/>
      </feComponentTransfer>
      <feMerge>
        <feMergeNode/>
        <feMergeNode in="SourceGraphic"/>
      </feMerge>
    </filter>
  </defs>
  
  <!-- Rounded Square Background #6200EA -->
  <rect x="0" y="0" width="512" height="512" rx="100" ry="100" fill="#6200EA" />
  
  <!-- Abstract Chip/Brain Symbol -->
  <g transform="translate(256, 256)" fill="none" stroke="#ffffff" stroke-width="20" stroke-linecap="round" stroke-linejoin="round">
    <!-- Center Core -->
    <rect x="-40" y="-40" width="80" height="80" rx="15" fill="#ffffff" stroke="none" filter="url(#shadow)" />
    
    <!-- Circuit Lines Top -->
    <path d="M0,-50 L0,-120" />
    <path d="M-30,-50 L-50,-100" />
    <path d="M30,-50 L50,-100" />
    
    <!-- Circuit Lines Bottom -->
    <path d="M0,50 L0,120" />
    <path d="M-30,50 L-50,100" />
    <path d="M30,50 L50,100" />
    
    <!-- Circuit Lines Left -->
    <path d="M-50,0 L-120,0" />
    <path d="M-50,-30 L-100,-50" />
    <path d="M-50,30 L-100,50" />
    
    <!-- Circuit Lines Right -->
    <path d="M50,0 L120,0" />
    <path d="M50,-30 L100,-50" />
    <path d="M50,30 L100,50" />
    
    <!-- Outer Nodes -->
    <circle cx="0" cy="-140" r="12" fill="#ffffff" stroke="none" />
    <circle cx="0" cy="140" r="12" fill="#ffffff" stroke="none" />
    <circle cx="-140" cy="0" r="12" fill="#ffffff" stroke="none" />
    <circle cx="140" cy="0" r="12" fill="#ffffff" stroke="none" />
    
    <circle cx="-60" cy="-110" r="8" fill="#ffffff" stroke="none" />
    <circle cx="60" cy="-110" r="8" fill="#ffffff" stroke="none" />
    <circle cx="-60" cy="110" r="8" fill="#ffffff" stroke="none" />
    <circle cx="60" cy="110" r="8" fill="#ffffff" stroke="none" />
    
    <circle cx="-110" cy="-60" r="8" fill="#ffffff" stroke="none" />
    <circle cx="-110" cy="60" r="8" fill="#ffffff" stroke="none" />
    <circle cx="110" cy="-60" r="8" fill="#ffffff" stroke="none" />
    <circle cx="110" cy="60" r="8" fill="#ffffff" stroke="none" />
  </g>
</svg>